
<svg viewBox="0 0 128 128" xmlns="http://www.w3.org/2000/svg">
  <path d="m38.027 70.023v25.812c0 3.3616-0.9342 6.0833-2.8027 8.1643-1.8685 2.001-4.3118 3.001-7.3301 3.001h-7.7614c-3.0183 0-5.4617-1-7.3302-3.001-1.8685-2.081-2.8027-4.8027-2.8027-8.1643v-62.669c0-3.3616 0.9342-6.0429 2.8027-8.0438 1.8685-2.081 4.3119-3.1215 7.3302-3.1215h7.7614c3.0183 0 5.4616 1.0405 7.3301 3.1215 1.8685 2.0009 2.8027 4.6822 2.8027 8.0438v26.893l-10.241-1.2006v-25.092c0-0.4001-0.1797-0.6002-0.539-0.6002h-6.4678c-0.3594 0-0.539 0.2001-0.539 0.6002v61.469c0 0.4001 0.1796 0.6002 0.539 0.6002h6.4678c0.3593 0 0.539-0.2001 0.539-0.6002v-25.212h10.241z"/>
  <path d="m70.345 95.354c0 3.3616-0.9342 6.0825-2.8027 8.1635-1.8685 2.001-4.3119 3.002-7.3302 3.002h-17.894v-72.874h-1.617l1.078-11.165h18.433c3.0183 0 5.4617 1.0405 7.3302 3.1215 1.8685 2.0009 2.8027 4.6822 2.8027 8.0438v61.709zm-10.78-61.709h-7.0068v61.709h7.0068c0.3593 0 0.539-0.2001 0.539-0.6003v-60.508c0-0.4002-0.1797-0.6003-0.539-0.6003z"/>
  <path d="m79.163 106.52-6.6834-84.04h10.241l3.9884 49.583 4.5275-37.698h7.0068l4.5276 37.698 3.988-49.583h10.241l-6.683 84.04h-10.349l-5.1742-45.262-5.2821 45.262h-10.348z"/>
  <style>
    path { fill: #000; }
    @media (prefers-color-scheme: dark) {
        path { fill: #FFF; }
    }
  </style>
</svg>
